<?xml version="1.0" encoding="utf-8"?>
<!-- Generator: Adobe Illustrator 25.4.1, SVG Export Plug-In . SVG Version: 6.00 Build 0)  -->
<svg version="1.1" id="Camada_1" xmlns="http://www.w3.org/2000/svg" xmlns:xlink="http://www.w3.org/1999/xlink" x="0px" y="0px"
	 viewBox="0 0 512 512" style="enable-background:new 0 0 512 512;" xml:space="preserve">
<style type="text/css">
	.st0{fill:none;stroke:#000000;stroke-width:20.4597;stroke-miterlimit:10;}
	.st1{fill:none;stroke:#000000;stroke-width:28.3465;stroke-miterlimit:10;}
	.st2{fill:none;stroke:#000000;stroke-width:28.3465;stroke-linecap:square;stroke-linejoin:round;stroke-miterlimit:10;}
	.st3{fill:none;stroke:#000000;stroke-width:0.7108;stroke-miterlimit:10;}
	.st4{stroke:#000000;stroke-width:0.7108;stroke-miterlimit:10;}
	.st5{fill:none;stroke:#FFDE00;stroke-miterlimit:10;}
	.st6{fill:#FFFFFF;}
</style>
<g>
	<g>
		<g>
			<path d="M211.25,185.4c4.88-5.75,7.84-13.19,7.84-21.31c0-18.18-14.79-32.98-32.98-32.98c-18.18,0-32.98,14.79-32.98,32.98
				c0,8.12,2.95,15.56,7.84,21.31c-12.37,8.18-20.55,22.22-20.55,38.13c0,25.2,20.5,45.69,45.69,45.69s45.69-20.5,45.69-45.69
				C231.8,207.62,223.62,193.59,211.25,185.4z M186.11,152.5c6.39,0,11.59,5.2,11.59,11.59c0,6.39-5.2,11.6-11.59,11.6
				s-11.59-5.2-11.59-11.6C174.51,157.7,179.71,152.5,186.11,152.5z M186.11,239.59c-8.86,0-16.06-7.21-16.06-16.07
				s7.21-16.06,16.06-16.06s16.06,7.21,16.06,16.06S194.97,239.59,186.11,239.59z"/>
			<path d="M291.86,313.8V145.93c0-5.7-3.27-10.89-8.41-13.36c-5.14-2.46-11.23-1.76-15.68,1.8l-38.06,30.55l18.54,23.11
				l13.97-11.22v158.2l0,0.44c0,8.77-7.01,15.91-15.77,15.91c-1.74,0-3.42-0.28-4.99-0.8c-6.09-2.02-9.88-7.99-9.69-14.4
				c0.01-0.38,0.02-0.76,0.02-1.14c0-25.19-20.5-45.69-45.69-45.69c-25.21,0-45.7,20.49-45.69,45.7
				c0.01,25.19,20.5,45.68,45.69,45.68c11.5,0,22.01-4.28,30.05-11.32c8.05,7.2,18.67,11.59,30.3,11.59
				c25.1,0,45.52-20.42,45.52-45.52L291.86,313.8z M186.11,351.08c-8.86,0-16.07-7.21-16.07-16.07c0-8.86,7.21-16.06,16.07-16.06
				c8.86,0,16.06,7.21,16.06,16.06C202.17,343.87,194.97,351.08,186.11,351.08z"/>
		</g>
		<g>
			<path d="M347.73,365.84c-0.83,0.6-1.51,1.37-2.01,2.31c-0.51,0.94-0.76,2.07-0.76,3.4c0,0.68,0.1,1.37,0.31,2.07
				c0.21,0.7,0.53,1.34,0.96,1.92c0.43,0.57,0.97,1.04,1.62,1.39c0.65,0.35,1.42,0.53,2.31,0.53c0.89,0,1.62-0.17,2.19-0.51
				c0.57-0.34,1.06-0.79,1.47-1.35c0.4-0.56,0.74-1.2,1-1.91c0.26-0.72,0.52-1.46,0.78-2.24c0.31-0.96,0.65-1.93,1.02-2.91
				c0.37-0.98,0.84-1.85,1.43-2.63c0.59-0.78,1.33-1.42,2.23-1.91c0.9-0.49,2.04-0.74,3.42-0.74c1.38,0,2.58,0.26,3.58,0.79
				c1,0.53,1.83,1.21,2.48,2.05c0.65,0.84,1.13,1.8,1.45,2.89c0.31,1.08,0.47,2.17,0.47,3.27c0,0.84-0.09,1.67-0.25,2.5
				c-0.17,0.84-0.42,1.63-0.76,2.39c-0.34,0.76-0.77,1.46-1.29,2.11c-0.52,0.65-1.12,1.23-1.8,1.72l-1.8-2.43
				c0.99-0.6,1.82-1.44,2.48-2.52c0.67-1.08,1-2.35,1-3.81c0-0.7-0.11-1.42-0.33-2.15c-0.22-0.73-0.56-1.39-1.02-1.98
				c-0.46-0.59-1.02-1.07-1.68-1.45c-0.67-0.38-1.44-0.57-2.33-0.57c-0.96,0-1.77,0.19-2.41,0.57c-0.64,0.38-1.17,0.88-1.6,1.51
				c-0.43,0.63-0.79,1.34-1.08,2.15c-0.29,0.81-0.57,1.66-0.86,2.54c-0.29,0.91-0.61,1.81-0.98,2.7c-0.36,0.89-0.84,1.68-1.43,2.39
				c-0.59,0.7-1.31,1.27-2.17,1.7c-0.86,0.43-1.92,0.65-3.17,0.65c-1.33,0-2.48-0.27-3.44-0.8c-0.96-0.53-1.76-1.23-2.39-2.09
				c-0.63-0.86-1.08-1.81-1.37-2.86c-0.29-1.04-0.43-2.07-0.43-3.09c0-1.88,0.33-3.48,1-4.81c0.67-1.33,1.45-2.33,2.37-3.01
				L347.73,365.84z"/>
			<path d="M370.97,327.11v2.82h-25.19v9.27h-2.5v-21.36h2.5v9.27H370.97z"/>
			<path d="M371.68,281.58c0,2.09-0.36,3.79-1.08,5.12c-0.72,1.33-1.62,2.39-2.72,3.17c-1.1,0.78-2.29,1.32-3.58,1.62
				c-1.29,0.3-2.51,0.45-3.66,0.45h-17.37v-2.82h17.06c1.12,0,2.21-0.13,3.27-0.39c1.06-0.26,2-0.68,2.82-1.27
				c0.82-0.59,1.49-1.36,2-2.33c0.51-0.96,0.76-2.15,0.76-3.56s-0.25-2.59-0.76-3.56c-0.51-0.96-1.17-1.74-2-2.33
				c-0.82-0.59-1.76-1.01-2.82-1.27c-1.06-0.26-2.14-0.39-3.27-0.39h-17.06v-2.82h17.37c1.15,0,2.37,0.15,3.66,0.45
				c1.29,0.3,2.48,0.84,3.58,1.62c1.1,0.78,2,1.84,2.72,3.19C371.32,277.82,371.68,279.52,371.68,281.58z"/>
			<path d="M343.28,242.11v-9.19c0-1.72,0.29-3.45,0.86-5.18c0.57-1.73,1.44-3.3,2.6-4.69c1.16-1.4,2.61-2.52,4.34-3.38
				c1.73-0.86,3.75-1.29,6.04-1.29c2.32,0,4.34,0.43,6.06,1.29c1.72,0.86,3.16,1.99,4.32,3.38c1.16,1.4,2.03,2.96,2.6,4.69
				c0.57,1.73,0.86,3.46,0.86,5.18v9.19H343.28z M368.47,239.29v-5.59c0-2.09-0.33-3.91-0.98-5.46c-0.65-1.55-1.51-2.84-2.56-3.85
				c-1.06-1.02-2.26-1.78-3.62-2.29c-1.36-0.51-2.75-0.76-4.19-0.76c-1.43,0-2.83,0.25-4.19,0.76c-1.36,0.51-2.56,1.27-3.62,2.29
				c-1.06,1.02-1.91,2.3-2.56,3.85c-0.65,1.55-0.98,3.37-0.98,5.46v5.59H368.47z"/>
			<path d="M370.97,187.77v2.82h-27.7v-2.82H370.97z"/>
			<path d="M357.12,131.13c2.11,0,4.06,0.37,5.83,1.1c1.77,0.73,3.31,1.74,4.6,3.03c1.29,1.29,2.3,2.82,3.03,4.58
				c0.73,1.76,1.1,3.67,1.1,5.73c0,2.06-0.37,3.97-1.1,5.73c-0.73,1.76-1.74,3.29-3.03,4.58c-1.29,1.29-2.82,2.3-4.6,3.03
				c-1.77,0.73-3.72,1.1-5.83,1.1s-4.05-0.36-5.83-1.1c-1.77-0.73-3.31-1.74-4.6-3.03c-1.29-1.29-2.3-2.82-3.03-4.58
				c-0.73-1.76-1.1-3.67-1.1-5.73c0-2.06,0.37-3.97,1.1-5.73c0.73-1.76,1.74-3.29,3.03-4.58c1.29-1.29,2.82-2.3,4.6-3.03
				C353.07,131.49,355.01,131.13,357.12,131.13z M357.14,134.1c-1.61,0-3.15,0.26-4.61,0.78c-1.46,0.52-2.74,1.28-3.85,2.27
				c-1.11,0.99-1.99,2.2-2.64,3.62c-0.65,1.42-0.98,3.02-0.98,4.79c0,1.77,0.33,3.37,0.98,4.79c0.65,1.42,1.53,2.63,2.64,3.62
				c1.11,0.99,2.39,1.75,3.85,2.27c1.46,0.52,2.99,0.78,4.61,0.78c1.62,0,3.15-0.26,4.61-0.78c1.46-0.52,2.73-1.28,3.83-2.27
				c1.09-0.99,1.97-2.2,2.62-3.62c0.65-1.42,0.98-3.02,0.98-4.79c0-1.77-0.33-3.37-0.98-4.79c-0.65-1.42-1.52-2.63-2.62-3.62
				c-1.09-0.99-2.37-1.75-3.83-2.27C360.29,134.36,358.76,134.1,357.14,134.1z"/>
		</g>
	</g>
</g>
</svg>
