<svg width="150" height="173" viewBox="0 0 150 173" fill="none" xmlns="http://www.w3.org/2000/svg">
<circle cx="74.5" cy="86.5" r="74.5" fill="black"/>
<path fill-rule="evenodd" clip-rule="evenodd" d="M120.385 48.8181C121.06 47.3913 119.938 45.7685 118.364 45.897L98.6592 47.5072C97.0858 47.6357 96.2416 49.4193 97.1396 50.7176L101.152 56.518L80.8018 70.594L59.4306 85.3763C58.1733 86.2459 57.8571 87.9715 58.7267 89.2287C59.5964 90.486 61.3205 90.8002 62.5778 89.9306L83.951 75.1468L104.301 61.0709L108.387 66.9777C109.285 68.276 111.251 68.1153 111.927 66.6884L120.385 48.8181ZM29.9768 126.598C28.4035 126.726 27.2809 125.103 27.9563 123.676L36.4144 105.806C37.0898 104.379 39.0565 104.219 39.9545 105.517L43.9678 111.319L64.4102 97.1792L85.7814 82.3968C87.0387 81.5272 88.7648 81.8401 89.6344 83.0973C90.5041 84.3545 90.1898 86.0787 88.9326 86.9483L67.5594 101.732L47.117 115.872L51.2015 121.777C52.0995 123.075 51.2554 124.859 49.682 124.987L29.9768 126.598Z" fill="white"/>
</svg>
